<svg width="24" height="24" viewBox="0 0 24 24" fill="none" xmlns="http://www.w3.org/2000/svg">
<path fill-rule="evenodd" clip-rule="evenodd" d="M15.8311 2C16.2162 2 16.5288 2.31256 16.5288 2.69767L16.5292 3.48633C17.8874 3.57945 19.0155 4.04469 19.8139 4.84473C20.6855 5.72008 21.1441 6.97867 21.1395 8.48844V16.9749C21.1395 20.0744 19.1711 22 16.0037 22H8.13579C4.96836 22 3 20.0475 3 16.9042V8.48658C3 5.56305 4.75539 3.68645 7.61829 3.48665L7.61886 2.69767C7.61886 2.31256 7.93142 2 8.31653 2C8.70165 2 9.0142 2.31256 9.0142 2.69767L9.01393 3.46883H15.133L15.1334 2.69767C15.1334 2.31256 15.446 2 15.8311 2ZM19.7441 10.2828H4.39534V16.9042C4.39534 19.2912 5.72371 20.6047 8.13579 20.6047H16.0037C18.4157 20.6047 19.7441 19.3154 19.7441 16.9749L19.7441 10.2828ZM16.2104 16.136C16.5955 16.136 16.908 16.4486 16.908 16.8337C16.908 17.2188 16.5955 17.5314 16.2104 17.5314C15.8252 17.5314 15.509 17.2188 15.509 16.8337C15.509 16.4486 15.8169 16.136 16.202 16.136H16.2104ZM12.0825 16.136C12.4676 16.136 12.7801 16.4486 12.7801 16.8337C12.7801 17.2188 12.4676 17.5314 12.0825 17.5314C11.6974 17.5314 11.3811 17.2188 11.3811 16.8337C11.3811 16.4486 11.689 16.136 12.0741 16.136H12.0825ZM7.94593 16.136C8.33105 16.136 8.6436 16.4486 8.6436 16.8337C8.6436 17.2188 8.33105 17.5314 7.94593 17.5314C7.56082 17.5314 7.24361 17.2188 7.24361 16.8337C7.24361 16.4486 7.55244 16.136 7.93756 16.136H7.94593ZM16.2104 12.5205C16.5955 12.5205 16.908 12.8331 16.908 13.2182C16.908 13.6033 16.5955 13.9159 16.2104 13.9159C15.8252 13.9159 15.509 13.6033 15.509 13.2182C15.509 12.8331 15.8169 12.5205 16.202 12.5205H16.2104ZM12.0825 12.5205C12.4676 12.5205 12.7801 12.8331 12.7801 13.2182C12.7801 13.6033 12.4676 13.9159 12.0825 13.9159C11.6974 13.9159 11.3811 13.6033 11.3811 13.2182C11.3811 12.8331 11.689 12.5205 12.0741 12.5205H12.0825ZM7.94593 12.5205C8.33105 12.5205 8.6436 12.8331 8.6436 13.2182C8.6436 13.6033 8.33105 13.9159 7.94593 13.9159C7.56082 13.9159 7.24361 13.6033 7.24361 13.2182C7.24361 12.8331 7.55244 12.5205 7.93756 12.5205H7.94593ZM15.133 4.86417H9.01393L9.0142 5.75905C9.0142 6.14417 8.70165 6.45672 8.31653 6.45672C7.93142 6.45672 7.61886 6.14417 7.61886 5.75905L7.61837 4.88529C5.53444 5.06035 4.39534 6.32357 4.39534 8.48658V8.88741H19.7441L19.7441 8.48658C19.7478 7.33774 19.439 6.44472 18.826 5.83077C18.2879 5.29106 17.5012 4.96873 16.5296 4.88574L16.5288 5.75905C16.5288 6.14417 16.2162 6.45672 15.8311 6.45672C15.446 6.45672 15.1334 6.14417 15.1334 5.75905L15.133 4.86417Z" fill="#373B5C"/>
</svg>
