<svg width="24" height="24" viewBox="0 0 24 24" fill="none" xmlns="http://www.w3.org/2000/svg">
<path d="M17.6164 10.4546C15.9726 10.4546 14.5114 11.4016 13.7808 12.7273H10.4018C9.57991 11.3069 8.21005 10.4546 6.47489 10.4546C4.00913 10.4546 2 12.4432 2 15C2 17.5569 4.00913 19.5455 6.47489 19.5455C8.94064 19.5455 10.9498 17.4622 10.9498 15C10.9498 14.9053 10.9498 14.716 10.9498 14.6213H13.0502C13.0502 14.716 13.0502 14.9053 13.0502 15C13.0502 17.5569 15.0594 19.5455 17.5251 19.5455C19.9909 19.5455 22 17.4622 22 15C22 12.5379 20.0822 10.4546 17.6164 10.4546ZM6.47489 17.6516C5.0137 17.6516 3.82648 16.4205 3.82648 15C3.82648 13.5796 5.0137 12.3485 6.47489 12.3485C7.93607 12.3485 9.12329 13.5796 9.12329 15C9.12329 16.4205 8.0274 17.6516 6.47489 17.6516ZM17.6164 17.6516C16.1553 17.6516 14.968 16.4205 14.968 15C14.968 13.5796 16.1553 12.3485 17.6164 12.3485C19.0776 12.3485 20.2648 13.4849 20.2648 15C20.2648 16.5152 19.0776 17.6516 17.6164 17.6516Z" fill="#373B5C"/>
<path d="M2.4908 10.3693C2.57591 10.4545 2.74614 10.4545 2.83125 10.4545C3.17171 10.4545 3.51216 10.2841 3.59728 9.94318L4.44841 7.89773C4.78887 7.13068 5.46977 6.70455 6.2358 6.70455H7.5125C8.02318 6.70455 8.36364 6.36364 8.36364 5.85227C8.36364 5.34091 7.93807 5 7.5125 5H6.2358C4.78887 5 3.42705 5.85227 2.91637 7.13068L2.06523 9.26136C1.895 9.6875 2.06523 10.1989 2.4908 10.3693Z" fill="#373B5C"/>
<path d="M16.494 6.7316H17.7805C18.5524 6.7316 19.2386 7.1645 19.4959 7.85714L20.3535 9.93506C20.5251 10.2814 20.7824 10.4545 21.1254 10.4545C21.2112 10.4545 21.3827 10.4545 21.4685 10.368C21.8973 10.1948 22.1546 9.67532 21.8973 9.24242L21.0397 7.1645C20.6108 5.8658 19.2386 5 17.7805 5H16.494C15.9794 5 15.6364 5.34632 15.6364 5.8658C15.6364 6.38528 16.0652 6.7316 16.494 6.7316Z" fill="#373B5C"/>
</svg>
