<svg width="24" height="24" viewBox="0 0 24 24" fill="none" xmlns="http://www.w3.org/2000/svg">
<path fill-rule="evenodd" clip-rule="evenodd" d="M12.0013 2C14.6746 2 17.187 3.03936 19.074 4.92733C22.9746 8.82795 22.9746 15.1739 19.074 19.0745C17.1618 20.9876 14.5872 22 11.979 22C10.5572 22 9.12612 21.6995 7.78714 21.0797C7.39261 20.9216 7.0232 20.7727 6.75801 20.7727C6.45281 20.7745 6.04246 20.916 5.64608 21.0528C4.83282 21.3319 3.82045 21.6799 3.0714 20.9337C2.32515 20.1865 2.66943 19.1769 2.94672 18.3646C3.0835 17.9645 3.224 17.5513 3.224 17.2387C3.224 16.9819 3.10025 16.6543 2.91043 16.1826C1.16762 12.4187 1.97342 7.88257 4.9296 4.92826C6.81663 3.04029 9.32803 2 12.0013 2ZM12.0023 3.39574C9.70116 3.39574 7.53963 4.29087 5.91592 5.91551C3.37195 8.45762 2.67967 12.361 4.19172 15.6298C4.40945 16.1686 4.61974 16.6934 4.61974 17.2387C4.61974 17.783 4.43271 18.3311 4.26802 18.8149C4.13216 19.2132 3.92653 19.8143 4.05866 19.9464C4.18799 20.0804 4.79281 19.8692 5.19199 19.7324C5.6712 19.5686 6.21461 19.3807 6.75336 19.3769C7.29305 19.3769 7.80203 19.5816 8.34078 19.7985C11.6412 21.3245 15.5446 20.6303 18.0877 18.0882C21.443 14.731 21.443 9.26994 18.0877 5.91458C16.463 4.28994 14.3024 3.39574 12.0023 3.39574ZM15.6748 11.4563C16.1885 11.4563 16.6053 11.8722 16.6053 12.3868C16.6053 12.9014 16.1885 13.3173 15.6748 13.3173C15.1612 13.3173 14.7406 12.9014 14.7406 12.3868C14.7406 11.8722 15.1528 11.4563 15.6665 11.4563H15.6748ZM11.9447 11.4563C12.4583 11.4563 12.8752 11.8722 12.8752 12.3868C12.8752 12.9014 12.4583 13.3173 11.9447 13.3173C11.431 13.3173 11.0105 12.9014 11.0105 12.3868C11.0105 11.8722 11.4217 11.4563 11.9363 11.4563H11.9447ZM8.21414 11.4563C8.72777 11.4563 9.14463 11.8722 9.14463 12.3868C9.14463 12.9014 8.72777 13.3173 8.21414 13.3173C7.70051 13.3173 7.27993 12.9014 7.27993 12.3868C7.27993 11.8722 7.69213 11.4563 8.20577 11.4563H8.21414Z" fill="#373B5C"/>
</svg>
