<svg width="25" height="25" viewBox="0 0 25 25" fill="none" xmlns="http://www.w3.org/2000/svg">
<path fill-rule="evenodd" clip-rule="evenodd" d="M11.3205 2.48535C13.6468 2.48535 15.5394 4.37796 15.5394 6.70425V7.59063C15.5394 7.98437 15.2198 8.30393 14.8261 8.30393C14.4323 8.30393 14.1128 7.98437 14.1128 7.59063V6.70425C14.1128 5.16353 12.8602 3.91194 11.3205 3.91194H6.68406C5.1462 3.91194 3.89461 5.16353 3.89461 6.70425V17.2886C3.89461 18.8283 5.1462 20.0799 6.68406 20.0799H11.3309C12.864 20.0799 14.1128 18.8321 14.1128 17.299V16.4022C14.1128 16.0085 14.4323 15.6889 14.8261 15.6889C15.2198 15.6889 15.5394 16.0085 15.5394 16.4022V17.299C15.5394 19.6196 13.6506 21.5065 11.3309 21.5065H6.68406C4.35967 21.5065 2.46802 19.6149 2.46802 17.2886V6.70425C2.46802 4.37796 4.35967 2.48535 6.68406 2.48535H11.3205ZM19.0051 8.71859L21.7898 11.4909C21.8147 11.5156 21.8369 11.5412 21.8573 11.5683L21.7898 11.4909C21.8235 11.5241 21.8535 11.5604 21.8795 11.5992C21.8909 11.6167 21.902 11.6348 21.9122 11.6535C21.9205 11.668 21.9281 11.6832 21.9352 11.6987C21.9412 11.7123 21.947 11.726 21.9523 11.7399C21.9595 11.758 21.9658 11.7765 21.9713 11.7954C21.9754 11.8102 21.9792 11.825 21.9826 11.84C21.9868 11.8581 21.9902 11.8764 21.9928 11.8948C21.9943 11.9068 21.9958 11.9193 21.9969 11.932C21.9991 11.9537 22 11.9748 22 11.9959L21.9952 12.0549L21.9932 12.0927C21.993 12.0943 21.9928 12.0959 21.9925 12.0975L22 11.9959C22 12.0487 21.9942 12.101 21.9828 12.1518C21.9792 12.1669 21.9754 12.1817 21.9712 12.1963C21.9658 12.2153 21.9595 12.2339 21.9525 12.2522C21.947 12.2659 21.9412 12.2795 21.935 12.293C21.9281 12.3086 21.9205 12.3238 21.9123 12.3388C21.902 12.357 21.8909 12.3752 21.8791 12.3928C21.8724 12.4032 21.8651 12.4135 21.8575 12.4236C21.8349 12.4534 21.8102 12.4814 21.7835 12.5074L19.0051 15.2742C18.8663 15.4131 18.6837 15.4825 18.502 15.4825C18.3194 15.4825 18.1358 15.4131 17.997 15.2723C17.7193 14.9927 17.7202 14.5419 17.9989 14.2642L19.5585 12.7092H9.83473C9.44099 12.7092 9.12143 12.3897 9.12143 11.9959C9.12143 11.6022 9.44099 11.2826 9.83473 11.2826H19.5604L17.9989 9.72861C17.7202 9.4509 17.7183 9.0001 17.997 8.72049C18.2747 8.44088 18.7255 8.44088 19.0051 8.71859Z" fill="#373B5C"/>
</svg>
