<svg width="24" height="24" viewBox="0 0 24 24" fill="none" xmlns="http://www.w3.org/2000/svg">
<g clip-path="url(#clip0_119_614)">
<path d="M15.5191 7.76672C14.5175 7.23095 13.3134 7.41644 12.4909 8.23852C9.80604 10.9211 5.57644 15.0015 2.8925 17.6855C2.82346 17.7545 2.75211 17.8217 2.68767 17.8954C1.98988 18.6903 1.80484 19.592 2.2168 20.5664C2.63612 21.557 3.43518 22.0352 4.39718 22.0909C5.21374 22.0812 5.81257 21.8129 6.31567 21.3089C8.43253 19.1888 12.0987 15.6749 14.217 13.5567C14.8393 12.9348 15.468 12.319 16.0816 11.6888C17.2526 10.4866 16.97 8.54415 15.5187 7.76764L15.5191 7.76672ZM12.8628 12.8322C10.844 14.845 7.28089 18.2562 5.26483 20.2723C5.06 20.4771 4.81559 20.5839 4.50535 20.5968C4.0957 20.571 3.77073 20.3805 3.59076 19.9786C3.41907 19.5961 3.4964 19.1685 3.79697 18.8647C4.44782 18.207 5.10419 17.5548 5.75826 16.9002C7.12347 15.5346 10.0366 12.7733 11.3991 11.4044C11.4912 11.3119 11.5386 11.3036 11.6338 11.4016C12.038 11.8182 12.4499 12.2274 12.8647 12.6338C12.9452 12.713 12.9415 12.7539 12.8633 12.8322H12.8628ZM15.0786 10.6044C14.7546 10.9542 14.4071 11.2824 14.0715 11.6216C14.025 11.669 13.996 11.6898 13.9367 11.6299C13.4805 11.1687 13.0202 10.7112 12.5595 10.2504C12.9199 9.88957 13.266 9.52825 13.6283 9.18395C14.0214 8.8102 14.6441 8.82631 15.0322 9.20328C15.4179 9.57796 15.4483 10.2049 15.0786 10.6044Z" fill="#373B5C"/>
<path d="M14.3896 4.27364C14.3896 3.8336 14.3877 3.39357 14.39 2.95353C14.3928 2.54157 14.6704 2.24975 15.0561 2.24745C15.4427 2.24515 15.7309 2.53651 15.7322 2.94387C15.7355 3.81703 15.735 4.6902 15.7322 5.56291C15.7309 5.97026 15.445 6.27175 15.0662 6.2759C14.6837 6.28004 14.3919 5.96934 14.3896 5.5514C14.3873 5.12517 14.3891 4.69941 14.3891 4.27318L14.3896 4.27364Z" fill="#373B5C"/>
<path d="M19.983 9.85736C19.5499 9.85736 19.1168 9.85966 18.6836 9.8569C18.2776 9.85414 17.9743 9.56738 17.9711 9.18994C17.9679 8.8102 18.2684 8.51608 18.6735 8.5147C19.5467 8.51148 20.4198 8.51194 21.293 8.5147C21.7031 8.51562 21.9977 8.79732 22 9.18074C22.0023 9.57382 21.7063 9.85506 21.2824 9.85736C20.8493 9.85966 20.4161 9.85782 19.983 9.85782V9.85736Z" fill="#373B5C"/>
<path d="M13.1992 6.66393C13.1827 6.93366 13.0607 7.15 12.7965 7.26277C12.5272 7.37784 12.2722 7.33687 12.0618 7.13158C11.6273 6.70674 11.2006 6.27407 10.7707 5.84508C10.5682 5.64255 10.3629 5.44279 10.1641 5.23704C9.89021 4.9535 9.88699 4.54614 10.1512 4.27964C10.4154 4.01359 10.8292 4.00991 11.1081 4.28562C11.7392 4.90931 12.3633 5.53899 12.9912 6.16544C13.127 6.30076 13.1919 6.46417 13.1992 6.66393Z" fill="#373B5C"/>
<path d="M20.1661 4.73851C20.1624 4.93045 20.1012 5.0957 19.9654 5.23102C19.333 5.86254 18.7042 6.4982 18.0672 7.12557C17.7943 7.39438 17.3887 7.38747 17.1264 7.12879C16.8571 6.86367 16.8507 6.45263 17.1273 6.17277C17.7556 5.53711 18.3889 4.90606 19.0237 4.27638C19.2331 4.06879 19.4872 4.02599 19.7569 4.13646C20.0221 4.24508 20.15 4.4582 20.1661 4.73805V4.73851Z" fill="#373B5C"/>
<path d="M17.5871 11.0468C17.7749 11.0546 17.9406 11.1144 18.0764 11.2502C18.7033 11.8776 19.3334 12.5017 19.9571 13.1328C20.2351 13.4136 20.2356 13.8246 19.9732 14.0902C19.7044 14.3622 19.2911 14.3594 19.0011 14.0727C18.376 13.4536 17.7546 12.8304 17.1342 12.2062C16.9211 11.9917 16.8658 11.7358 16.9818 11.4569C17.0914 11.1927 17.3059 11.0661 17.5876 11.0472L17.5871 11.0468Z" fill="#373B5C"/>
</g>
<defs>
<clipPath id="clip0_119_614">
<rect width="20" height="19.8426" fill="white" transform="translate(2 2.24744)"/>
</clipPath>
</defs>
</svg>
