<svg width="27" height="26" viewBox="0 0 27 26" fill="none" xmlns="http://www.w3.org/2000/svg">
<rect width="27" height="26" rx="4" fill="#4E1469"/>
<path d="M21.7008 9.59407C22.2478 9.54808 22.7581 9.52038 23.2631 9.45167C23.3711 9.43671 23.4696 9.28267 23.5558 9.17795C23.6005 9.12421 23.5957 9.02724 23.6388 8.97072C23.6734 8.92473 23.7468 8.88761 23.8016 8.88983C23.8415 8.89149 23.899 8.95687 23.9133 9.00563C24.1975 9.93927 23.7681 10.7571 22.8598 10.9965C22.0297 11.2153 21.1948 11.4143 20.3647 11.6337C20.1827 11.6819 20.0811 11.6331 20.031 11.4541C19.8475 10.7981 19.6846 10.1349 19.476 9.48769C19.3175 8.99566 19.4111 8.61666 19.7953 8.29529C19.9965 8.12685 20.1854 7.94178 20.3727 7.75561C20.4205 7.70795 20.4402 7.62872 20.4727 7.56389C20.4009 7.56334 20.32 7.53951 20.2588 7.56555C19.6825 7.81212 19.2579 8.24819 18.9498 8.79563C18.7226 9.19956 18.5017 9.61901 18.3565 10.0595C18.0101 11.1112 17.6807 12.1706 17.4008 13.2427C17.1491 14.2069 17.2848 15.1499 17.7366 16.0387C18.1803 16.9119 18.7167 17.7154 19.3574 18.4456C19.5724 18.6906 19.8267 18.8402 20.1385 18.8451C20.7228 18.854 21.3076 18.8402 21.8924 18.8357C22.1116 18.8341 22.2452 18.7138 22.2797 18.495C22.3271 18.1969 22.3819 17.896 22.3883 17.5957C22.3952 17.2815 22.2382 17.1801 21.9584 17.3092C21.6008 17.4738 21.2581 17.6732 20.9069 17.8539C20.8132 17.9021 20.7159 18.0212 20.611 17.8788C20.5099 17.7414 20.61 17.6411 20.6956 17.5597C20.8867 17.3779 21.0766 17.1906 21.2884 17.0371C21.8439 16.6332 22.4032 16.2343 22.9758 15.8569C23.3445 15.6137 23.5249 15.7046 23.5983 16.1462C23.7665 17.159 23.8601 18.1764 23.7133 19.2031C23.6574 19.5948 23.4951 19.8846 23.1434 20.0913C22.4192 20.5174 21.6758 20.8676 20.842 20.9734C19.7389 21.1141 18.8428 20.7152 18.0409 19.9267C17.313 19.2114 16.5404 18.536 15.7358 17.9154C14.5136 16.9729 13.0981 16.4565 11.6178 16.1672C10.2609 15.9018 8.89232 15.6957 7.52319 15.504C7.02354 15.4342 6.69629 15.2286 6.48238 14.7471C5.85502 13.3353 5.21116 11.9318 4.55826 10.5327C3.94633 9.22228 3.87768 7.87252 4.15811 6.46347C4.25389 5.98252 4.4646 5.63788 4.80782 5.33257C5.43199 4.77793 6.12799 4.35959 6.89476 4.06039C7.06504 3.9939 7.1539 4.03434 7.20605 4.21719C7.48381 5.1935 7.61737 6.18975 7.60088 7.20761C7.59928 7.31898 7.58758 7.42094 7.45455 7.43645C7.30715 7.45418 7.30023 7.33339 7.28427 7.23365C7.20818 6.7588 7.07089 6.30666 6.84262 5.88611C6.7032 5.62957 6.5739 5.58579 6.31849 5.72321C5.78957 6.00746 5.55065 6.47954 5.57725 7.08294C5.59055 7.37605 5.62408 7.68967 5.73848 7.95175C5.95665 8.4521 6.20461 8.9469 6.5026 9.39959C6.92456 10.0407 7.58598 10.2634 8.29635 10.3366C8.94446 10.403 9.59524 10.444 10.2428 10.5139C10.3343 10.5238 10.4429 10.6142 10.4982 10.6995C10.9872 11.4536 11.5231 12.1623 12.1717 12.779C12.6474 13.2311 13.2067 13.5253 13.7883 13.7835C13.8383 13.8057 13.9192 13.7514 13.9857 13.7326C13.9442 13.6661 13.9176 13.5702 13.8585 13.5375C13.1764 13.163 12.5666 12.6892 12.0318 12.1113C11.5774 11.6198 11.1958 11.0729 10.8782 10.4762C10.7787 10.2895 10.7685 10.1088 10.8888 9.9304C12.1127 8.11632 13.4046 6.36207 14.8541 4.73083C15.4325 4.07812 16.0806 3.91355 16.8586 4.03878C18.5321 4.30806 20.205 4.584 21.878 4.85883C21.9498 4.87046 22.0211 4.89041 22.0908 4.91313C22.4628 5.03447 22.5942 5.27218 22.4772 5.6606C22.334 6.1349 22.1542 6.59756 22.019 7.07408C21.8152 7.79384 21.7115 8.53244 21.7013 9.28434C21.7003 9.36579 21.7013 9.44724 21.7013 9.59407H21.7008ZM16.6276 13.1258C16.6926 13.0959 16.758 13.066 16.8229 13.0366C16.7713 12.9801 16.7293 12.9075 16.6676 12.8704C16.3414 12.6754 15.9928 12.6288 15.6294 12.7363C15.0191 12.9164 14.6008 13.5048 14.6258 14.1443C14.6524 14.8108 15.151 15.4369 15.7635 15.5804C16.0077 15.6375 16.2397 15.6131 16.46 15.4946C16.4989 15.4735 16.5207 15.4175 16.5505 15.3782C16.5143 15.3516 16.4802 15.3206 16.4409 15.3006C16.4121 15.2862 16.3754 15.2896 16.3435 15.2812C15.8396 15.1527 15.4751 14.6152 15.5395 14.0972C15.6102 13.527 16.086 13.0854 16.6276 13.1269V13.1258Z" fill="#F2F2F2"/>
</svg>
